<svg xmlns="http://www.w3.org/2000/svg" viewBox="0 0 240 210"><defs><linearGradient id="b" x2="0" y2="1"><stop stop-color="#ffe78c"/><stop offset="1" stop-color="#b66c18"/></linearGradient></defs><path fill="#a6d2df" d="M0 145q45-22 90 0t90 0t60 0v65H0z"/><path fill="#d59b32" d="M0 145q45-20 90 0t90 0t60 0v65H0z" opacity=".8"/><rect x="52" y="75" width="136" height="55" rx="25" fill="#7f451f"/><path d="M42 77q74-48 156 0" fill="#f5d276" stroke="#63391d" stroke-width="7"/><path d="M80 68v-40h80v40" fill="#9f6125" stroke="#63391d" stroke-width="7"/><rect x="93" y="39" width="54" height="18" rx="8" fill="#f3d47b"/><path d="M100 94q20-14 40 0t40 0" fill="none" stroke="#ffe9a6" stroke-width="10" stroke-linecap="round"/><circle cx="110" cy="28" r="7" fill="#fff5d0"/><circle cx="132" cy="20" r="5" fill="#fff5d0"/><circle cx="154" cy="27" r="6" fill="#fff5d0"/></svg>
