<svg xmlns="http://www.w3.org/2000/svg" viewBox="0 0 220 220">
<defs><linearGradient id="bg" x1="0" y1="0" x2="1" y2="1"><stop stop-color="#f4ead9"/><stop offset="1" stop-color="#d7c3a2"/></linearGradient><linearGradient id="skin" x1="0" y1="0" x2="0" y2="1"><stop stop-color="#a96f4f"/><stop offset="1" stop-color="#9d6653"/></linearGradient></defs>
<rect width="220" height="220" rx="38" fill="url(#bg)"/><ellipse cx="110" cy="203" rx="77" ry="42" fill="#000" opacity=".12"/>
<path d="M52 220Q56 154 110 148Q164 154 168 220Z" fill="#e4b447"/><g transform="translate(145 111)"><path d="M0 6h25v31H3Z" fill="#e5a72e" stroke="#5a3a24" stroke-width="3"/><path d="M25 14q13 0 10 10q-2 7-10 4" fill="none" stroke="#e5a72e" stroke-width="6"/><path d="M2 7h23" stroke="#fff4d4" stroke-width="7" stroke-linecap="round"/></g><path d="M47 104Q34 65 55 36Q83 11 112 27Q151 12 172 55Q181 78 164 110L146 132L66 132Z" fill="#3a211b"/><g fill="#3a211b"><circle cx="62" cy="48" r="15"/><circle cx="82" cy="32" r="15"/><circle cx="106" cy="28" r="16"/><circle cx="132" cy="32" r="15"/><circle cx="154" cy="50" r="15"/></g>
<ellipse cx="110" cy="95" rx="49" ry="59" fill="url(#skin)" stroke="#633f34" stroke-width="3"/>
<path d="M47 104Q34 65 55 36Q83 11 112 27Q151 12 172 55Q181 78 164 110L146 132L66 132Z" fill="#3a211b"/><g fill="#3a211b"><circle cx="62" cy="48" r="15"/><circle cx="82" cy="32" r="15"/><circle cx="106" cy="28" r="16"/><circle cx="132" cy="32" r="15"/><circle cx="154" cy="50" r="15"/></g>
<path d="M86 92q9-7 18 0M116 92q9-7 18 0" stroke="#3d2a25" stroke-width="4" fill="none" stroke-linecap="round"/><circle cx="96" cy="93" r="3" fill="#2b211f"/><circle cx="128" cy="93" r="3" fill="#2b211f"/>
<path d="M108 97q-4 15 3 17" stroke="#815044" stroke-width="3" fill="none" stroke-linecap="round"/><path d="M94 121q16 10 32 0" stroke="#733e3a" stroke-width="4" fill="none" stroke-linecap="round"/><circle cx="92" cy="91" r="13" fill="none" stroke="#302b2a" stroke-width="4"/><circle cx="136" cy="91" r="13" fill="none" stroke="#302b2a" stroke-width="4"/><path d="M105 91h18" stroke="#302b2a" stroke-width="4"/>
</svg>