<svg xmlns="http://www.w3.org/2000/svg" viewBox="0 0 220 220">
<defs><linearGradient id="bg" x1="0" y1="0" x2="1" y2="1"><stop stop-color="#f4ead9"/><stop offset="1" stop-color="#d7c3a2"/></linearGradient><linearGradient id="skin" x1="0" y1="0" x2="0" y2="1"><stop stop-color="#c08a69"/><stop offset="1" stop-color="#9d6653"/></linearGradient></defs>
<rect width="220" height="220" rx="38" fill="url(#bg)"/><ellipse cx="110" cy="203" rx="77" ry="42" fill="#000" opacity=".12"/>
<path d="M52 220Q56 154 110 148Q164 154 168 220Z" fill="#6d7881"/><path d="M145 124h35M148 124l-8 18m27-18 8 18" stroke="#6d7881" stroke-width="5" fill="none"/><path d="M139 143h43" stroke="#8e9aa1" stroke-width="6"/><path d="M50 105Q45 42 108 28Q170 36 166 106L148 132L66 132Z" fill="#3a2b26"/>
<ellipse cx="110" cy="95" rx="49" ry="59" fill="url(#skin)" stroke="#633f34" stroke-width="3"/>
<path d="M50 105Q45 42 108 28Q170 36 166 106L148 132L66 132Z" fill="#3a2b26"/>
<path d="M86 92q9-7 18 0M116 92q9-7 18 0" stroke="#3d2a25" stroke-width="4" fill="none" stroke-linecap="round"/><circle cx="96" cy="93" r="3" fill="#2b211f"/><circle cx="128" cy="93" r="3" fill="#2b211f"/>
<path d="M108 97q-4 15 3 17" stroke="#815044" stroke-width="3" fill="none" stroke-linecap="round"/><path d="M94 121q16 10 32 0" stroke="#733e3a" stroke-width="4" fill="none" stroke-linecap="round"/>
</svg>